<?xml version="1.0" encoding="utf-8"?>
<!-- Generator: Adobe Illustrator 19.0.0, SVG Export Plug-In . SVG Version: 6.00 Build 0)  -->
<svg version="1.1" id="Layer_1" xmlns="http://www.w3.org/2000/svg" xmlns:xlink="http://www.w3.org/1999/xlink" x="0px" y="0px"
	 viewBox="-346 280.3 148 36" style="enable-background:new -346 280.3 148 36;" xml:space="preserve">
<style type="text/css">
	.st0{fill:#4F5D6C;}
	.st1{fill:#D0D2D3;}
	.st2{fill:#12CAF6;}
	.st3{fill:#FFD025;}
	.st4{fill:#F85746;}
</style>
<g>
	<g>
		<path class="st0" d="M-301.3,288.7c0.3,0.5,0.6,1.2,1,2c0.4,0.8,0.8,1.7,1.2,2.6c0.4,0.9,0.8,1.9,1.3,2.9c0.4,1,0.8,1.9,1.2,2.8
			c0.4-0.9,0.8-1.8,1.2-2.8c0.4-1,0.8-1.9,1.3-2.9c0.4-0.9,0.8-1.8,1.2-2.6c0.4-0.8,0.7-1.5,1-2h3.5c0.2,1.1,0.3,2.4,0.5,3.8
			c0.1,1.4,0.3,2.9,0.4,4.4c0.1,1.5,0.2,3.1,0.3,4.6c0.1,1.5,0.2,3,0.2,4.3h-3.8c0-1.7-0.1-3.5-0.2-5.5c-0.1-2-0.2-4-0.4-6
			c-0.3,0.7-0.6,1.5-1,2.3c-0.4,0.8-0.7,1.7-1.1,2.5s-0.7,1.6-1,2.4c-0.3,0.8-0.6,1.4-0.8,2h-2.7c-0.2-0.5-0.5-1.2-0.8-2
			c-0.3-0.8-0.7-1.6-1-2.4s-0.7-1.7-1.1-2.5c-0.4-0.8-0.7-1.6-1-2.3c-0.2,2-0.3,4-0.4,6c-0.1,2-0.1,3.8-0.2,5.5h-3.8
			c0.1-1.4,0.1-2.8,0.2-4.3c0.1-1.5,0.2-3.1,0.3-4.6c0.1-1.5,0.2-3,0.4-4.4c0.1-1.4,0.3-2.7,0.5-3.8H-301.3z"/>
		<path class="st0" d="M-284.5,299.5c0-1.2,0.2-2.2,0.5-3c0.4-0.9,0.8-1.6,1.4-2.2c0.6-0.6,1.2-1,2-1.3c0.8-0.3,1.5-0.4,2.3-0.4
			c1.9,0,3.3,0.6,4.4,1.7c1.1,1.1,1.6,2.8,1.6,5c0,0.2,0,0.5,0,0.7c0,0.3,0,0.5,0,0.7h-8.4c0.1,0.8,0.4,1.4,1.1,1.8
			c0.6,0.4,1.5,0.7,2.5,0.7c0.7,0,1.3-0.1,2-0.2c0.7-0.1,1.2-0.3,1.6-0.5l0.5,3c-0.2,0.1-0.5,0.2-0.8,0.3c-0.3,0.1-0.7,0.2-1.1,0.3
			c-0.4,0.1-0.8,0.1-1.3,0.2c-0.5,0-0.9,0.1-1.4,0.1c-1.2,0-2.2-0.2-3.1-0.5c-0.9-0.3-1.6-0.8-2.2-1.4c-0.6-0.6-1-1.3-1.3-2.1
			C-284.4,301.3-284.5,300.4-284.5,299.5z M-275.9,298c0-0.3-0.1-0.6-0.2-0.9c-0.1-0.3-0.2-0.6-0.4-0.8c-0.2-0.2-0.4-0.4-0.7-0.6
			c-0.3-0.1-0.6-0.2-1.1-0.2c-0.4,0-0.8,0.1-1.1,0.2c-0.3,0.1-0.5,0.3-0.7,0.6c-0.2,0.2-0.4,0.5-0.5,0.8c-0.1,0.3-0.2,0.6-0.2,0.9
			H-275.9z"/>
		<path class="st0" d="M-257.9,305.5c-0.3,0.1-0.7,0.2-1.1,0.3c-0.4,0.1-0.9,0.2-1.4,0.2c-0.5,0.1-1,0.1-1.4,0.2
			c-0.5,0-1,0.1-1.4,0.1c-1.1,0-2-0.2-2.9-0.5c-0.8-0.3-1.6-0.8-2.1-1.4c-0.6-0.6-1-1.3-1.3-2.1c-0.3-0.8-0.5-1.8-0.5-2.8
			c0-1.1,0.1-2,0.4-2.9c0.3-0.9,0.6-1.6,1.1-2.2c0.5-0.6,1.1-1,1.8-1.4c0.7-0.3,1.5-0.5,2.5-0.5c0.5,0,1,0,1.4,0.1
			c0.4,0.1,0.8,0.2,1.2,0.4v-5.9l3.7-0.6V305.5z M-266.3,299.3c0,1.1,0.3,2.1,0.8,2.8c0.5,0.7,1.3,1,2.3,1c0.3,0,0.6,0,0.9,0
			c0.3,0,0.5-0.1,0.7-0.1v-6.7c-0.2-0.1-0.5-0.3-0.9-0.4c-0.4-0.1-0.7-0.1-1.1-0.1C-265.4,295.7-266.3,296.9-266.3,299.3z"/>
		<path class="st0" d="M-248.8,286.6c0.7,0,1.3,0.1,1.9,0.2c0.6,0.1,1,0.3,1.3,0.4l-0.7,3c-0.3-0.1-0.7-0.3-1.1-0.3
			c-0.4-0.1-0.7-0.1-1.1-0.1c-0.4,0-0.8,0.1-1.1,0.2c-0.3,0.1-0.5,0.3-0.7,0.5c-0.2,0.2-0.3,0.5-0.4,0.8c-0.1,0.3-0.1,0.6-0.1,1v0.6
			h4.6v3.1h-4.6v10h-3.7v-13.7c0-1.7,0.5-3,1.4-4C-252.1,287.1-250.7,286.6-248.8,286.6z"/>
		<path class="st0" d="M-232,299.3c0,1-0.1,2-0.4,2.8c-0.3,0.9-0.7,1.6-1.3,2.2c-0.6,0.6-1.2,1.1-2,1.4c-0.8,0.3-1.7,0.5-2.6,0.5
			c-1,0-1.8-0.2-2.6-0.5c-0.8-0.3-1.5-0.8-2-1.4c-0.6-0.6-1-1.3-1.3-2.2c-0.3-0.9-0.5-1.8-0.5-2.8c0-1,0.2-2,0.5-2.8
			c0.3-0.8,0.8-1.6,1.3-2.2c0.6-0.6,1.2-1.1,2-1.4c0.8-0.3,1.6-0.5,2.6-0.5c0.9,0,1.8,0.2,2.6,0.5c0.8,0.3,1.5,0.8,2,1.4
			c0.6,0.6,1,1.3,1.3,2.2C-232.2,297.4-232,298.3-232,299.3z M-235.8,299.3c0-1.1-0.2-2-0.7-2.7c-0.5-0.7-1.1-1-1.9-1s-1.5,0.3-2,1
			c-0.5,0.7-0.7,1.5-0.7,2.7c0,1.1,0.2,2,0.7,2.7c0.5,0.7,1.1,1,2,1s1.5-0.3,1.9-1C-236,301.4-235.8,300.5-235.8,299.3z"/>
		<path class="st0" d="M-223.9,306.1c-1.1,0-1.9-0.1-2.6-0.3c-0.7-0.2-1.2-0.5-1.6-0.9c-0.4-0.4-0.7-0.9-0.8-1.4
			c-0.1-0.6-0.2-1.2-0.2-1.9v-14.4l3.7-0.6v14.2c0,0.3,0,0.6,0.1,0.9c0,0.3,0.1,0.5,0.3,0.7c0.1,0.2,0.3,0.3,0.6,0.4
			c0.3,0.1,0.6,0.2,1.1,0.2L-223.9,306.1z"/>
		<path class="st0" d="M-217.3,289.1c0,0.7-0.2,1.2-0.7,1.6c-0.4,0.4-1,0.6-1.5,0.6c-0.6,0-1.1-0.2-1.5-0.6
			c-0.4-0.4-0.7-0.9-0.7-1.6c0-0.7,0.2-1.2,0.7-1.6c0.4-0.4,1-0.6,1.5-0.6c0.6,0,1.1,0.2,1.5,0.6
			C-217.5,287.9-217.3,288.4-217.3,289.1z M-217.6,305.9h-3.7v-13h3.7V305.9z"/>
		<path class="st0" d="M-202,299.3c0,1-0.1,2-0.4,2.8c-0.3,0.9-0.7,1.6-1.3,2.2c-0.6,0.6-1.2,1.1-2,1.4c-0.8,0.3-1.7,0.5-2.6,0.5
			c-1,0-1.8-0.2-2.6-0.5c-0.8-0.3-1.5-0.8-2-1.4c-0.6-0.6-1-1.3-1.3-2.2c-0.3-0.9-0.5-1.8-0.5-2.8c0-1,0.2-2,0.5-2.8
			c0.3-0.8,0.8-1.6,1.3-2.2c0.6-0.6,1.2-1.1,2-1.4c0.8-0.3,1.6-0.5,2.6-0.5c0.9,0,1.8,0.2,2.6,0.5c0.8,0.3,1.5,0.8,2,1.4
			c0.6,0.6,1,1.3,1.3,2.2C-202.1,297.4-202,298.3-202,299.3z M-205.7,299.3c0-1.1-0.2-2-0.7-2.7c-0.5-0.7-1.1-1-1.9-1
			c-0.8,0-1.5,0.3-2,1c-0.5,0.7-0.7,1.5-0.7,2.7c0,1.1,0.2,2,0.7,2.7c0.5,0.7,1.1,1,2,1c0.8,0,1.5-0.3,1.9-1
			C-206,301.4-205.7,300.5-205.7,299.3z"/>
	</g>
	<path id="XMLID_811_" class="st1" d="M-336.5,289.7L-336.5,289.7c0-1.1,0.9-2,2-2h11.3c1.1,0,2,0.9,2,2l0,0c0,1.1-0.9,2-2,2h-11.3
		C-335.6,291.7-336.5,290.8-336.5,289.7z"/>
	<path class="st1" d="M-315.6,283.5c0-1.1-0.9-2-2-2h-22.5c-1.1,0-2,0.9-2,2v0v22.1c0,1.1,0.9,2,2,2c1.1,0,2-0.9,2-2v-20.2h18.6v2.9
		c0,1.1,0.9,2,2,2c1.1,0,2-0.9,2-2v-4.7C-315.6,283.6-315.6,283.6-315.6,283.5L-315.6,283.5z"/>
	<g>
		<g>
			<path class="st2" d="M-311.6,304.1c-0.2-2.6-1.3-4.9-3-6.6c-1.7-1.7-4-2.8-6.6-3c-0.2,0-0.4,0-0.7,0v9.5v0.7h0.7h9.5
				C-311.6,304.5-311.6,304.3-311.6,304.1z"/>
		</g>
		<path class="st3" d="M-311.6,304.8h-9.5h-0.7l-0.7,0.7l-6.6,6.6c0.2,0.2,0.3,0.3,0.5,0.5c1.8,1.6,4.2,2.5,6.7,2.5
			c3.8,0,7.1-2.1,8.8-5.1c0.8-1.3,1.2-2.8,1.4-4.4C-311.6,305.2-311.6,305-311.6,304.8L-311.6,304.8z"/>
		<g>
			<path class="st4" d="M-321.8,304.1v-9.5c-0.2,0-0.5,0-0.7,0c-3.5,0.2-6.5,2.2-8.2,5.1c-0.9,1.5-1.4,3.3-1.4,5.1
				c0,2.6,1,4.9,2.5,6.7c0.1,0.2,0.3,0.3,0.5,0.5l6.6-6.6l0.7-0.7h0V304.1z"/>
		</g>
		<rect x="-321.8" y="294.5" class="st4" width="0" height="9.5"/>
		<rect x="-321.8" y="304.1" class="st4" width="0" height="0.7"/>
	</g>
	<g>
		<path class="st1" d="M-328.5,295.7c-0.2-0.9-1-1.5-1.9-1.5h-4c-1.1,0-2,0.9-2,2c0,1.1,0.9,2,2,2h3.5
			C-330.2,297.1-329.4,296.3-328.5,295.7z"/>
	</g>
</g>
</svg>
